<svg width="47" height="54" viewBox="0 0 47 54" fill="none" xmlns="http://www.w3.org/2000/svg">
<g style="mix-blend-mode:multiply">
<path d="M46.9899 13.395V40.185L23.862 53.58L0.736328 40.185V13.395L11.9579 6.82475V5.6672C11.9579 2.53724 17.2682 0 23.8208 0C30.3723 0 35.6837 2.53724 35.6837 5.6672V6.82475L46.9899 13.395Z" fill="url(#paint0_linear_2087_255)"/>
<path d="M46.9899 13.395V40.185L23.862 53.58L0.736328 40.185V13.395L11.9579 6.82475V5.6672C11.9579 2.53724 17.2682 0 23.8208 0C30.3723 0 35.6837 2.53724 35.6837 5.6672V6.82475L46.9899 13.395Z" fill="url(#paint1_linear_2087_255)"/>
</g>
<path d="M46.9899 13.395V40.185L23.862 53.58L0.736328 40.185V13.395L11.9579 6.82475V5.6672C11.9579 2.53724 17.2682 0 23.8208 0C30.3723 0 35.6837 2.53724 35.6837 5.6672V6.82475L46.9899 13.395Z" fill="url(#paint2_linear_2087_255)" fill-opacity="0.6"/>
<path d="M35.6837 5.6672C35.6837 2.53724 30.3713 0 23.8209 0C17.2682 0 11.958 2.53724 11.958 5.6672C11.958 8.79717 17.2682 11.3344 23.8209 11.3344C30.3724 11.3344 35.6837 8.79717 35.6837 5.6672Z" fill="white" fill-opacity="0.32"/>
<path d="M23.8209 18.6447C30.3724 18.6447 35.6837 16.1075 35.6837 12.9775V5.66608C35.6837 8.79604 30.3724 11.3333 23.8209 11.3333C17.2694 11.3333 11.958 8.79604 11.958 5.66608V12.9775C11.958 16.1075 17.2682 18.6447 23.8209 18.6447Z" fill="white" fill-opacity="0.1"/>
<path d="M23.862 26.79L46.9888 13.395L35.6837 6.82364V12.9775C35.6837 16.1075 30.3723 18.6447 23.8208 18.6447C17.2693 18.6447 11.9579 16.1075 11.9579 12.9775V6.82364L0.736328 13.395L23.862 26.79Z" fill="url(#paint3_linear_2087_255)"/>
<path d="M0.736328 40.185L23.862 53.58V26.79L0.736328 13.395V40.185Z" fill="url(#paint4_linear_2087_255)" fill-opacity="0.3"/>
<defs>
<linearGradient id="paint0_linear_2087_255" x1="0.736328" y1="51.0807" x2="46.9899" y2="51.0807" gradientUnits="userSpaceOnUse">
<stop stop-color="#00AAFF"/>
<stop offset="1" stop-color="#8636F8"/>
</linearGradient>
<linearGradient id="paint1_linear_2087_255" x1="5.99994" y1="27" x2="44.4184" y2="40.1935" gradientUnits="userSpaceOnUse">
<stop offset="0.00799988" stop-color="#8636F8"/>
<stop offset="0.502025" stop-color="#F020B3"/>
<stop offset="0.749458" stop-color="#F8475E"/>
<stop offset="1" stop-color="#FF9421"/>
</linearGradient>
<linearGradient id="paint2_linear_2087_255" x1="23.862" y1="57.8418" x2="23.862" y2="12.0555" gradientUnits="userSpaceOnUse">
<stop stop-color="white"/>
<stop offset="0.22" stop-color="white" stop-opacity="0.76"/>
<stop offset="0.6" stop-color="white" stop-opacity="0.36"/>
<stop offset="0.87" stop-color="white" stop-opacity="0.1"/>
<stop offset="1" stop-color="white" stop-opacity="0"/>
</linearGradient>
<linearGradient id="paint3_linear_2087_255" x1="23.9999" y1="-2.5" x2="23.9999" y2="35.5" gradientUnits="userSpaceOnUse">
<stop stop-color="white"/>
<stop offset="1" stop-color="white" stop-opacity="0"/>
</linearGradient>
<linearGradient id="paint4_linear_2087_255" x1="23.9999" y1="45.5" x2="8.48452" y2="35.0228" gradientUnits="userSpaceOnUse">
<stop offset="0.109817" stop-color="white"/>
<stop offset="1" stop-color="white" stop-opacity="0"/>
</linearGradient>
</defs>
</svg>
